<svg xmlns="http://www.w3.org/2000/svg" xmlns:xlink="http://www.w3.org/1999/xlink" version="1.1" width="44" height="44" enable-background="new 0 0 100 100" xml:space="preserve"><rect id="backgroundrect" width="100%" height="100%" x="0" y="0" fill="none" stroke="none"/>

<g class="currentLayer" style=""><title>Layer 1</title><path fill-rule="evenodd" clip-rule="evenodd" d="M31.995002197265627,31.998002258300787 c-0.28,0 -0.6490000000000001,0 -1.062,0 l3.585,-4.412 c3.181,-1.057 5.477,-4.053 5.477,-7.588 c0,-4.418 -3.581,-7.998 -7.999,-7.998 c-1.601,0 -3.083,0.48000000000000004 -4.333,1.29 c-1.232,-5.316 -5.974,-9.29 -11.665000000000001,-9.29 c-6.626,0 -11.998,5.372 -11.998,12 c0,5.446 3.632,10.038 8.604,11.504 l-1.3490000000000002,3.777 c-6.52,-2.021 -11.255,-8.098 -11.255,-15.282 c0,-8.835 7.163,-15.999 15.998,-15.999 c6.004,0 11.229,3.3120000000000003 13.965,8.204 c0.6640000000000001,-0.11400000000000002 1.3370000000000002,-0.20500000000000002 2.033,-0.20500000000000002 c6.627,0 11.999,5.371 11.999,11.998 S38.62200219726563,31.998002258300787 31.995002197265627,31.998002258300787 zM19.997002197265623,17.99800225830078 h9.998 l-5.999,10 h6.999 L17.997002197265623,43.99600225830078 l3.6,-11.998 h-6.6 L19.997002197265623,17.99800225830078 z" id="svg_1" class=""/></g></svg>