<svg xmlns="http://www.w3.org/2000/svg" xmlns:xlink="http://www.w3.org/1999/xlink" version="1.1" width="44" height="44" enable-background="new 0 0 100 100" xml:space="preserve"><rect id="backgroundrect" width="100%" height="100%" x="0" y="0" fill="none" stroke="none"/>

<g class="currentLayer" style=""><title>Layer 1</title><path fill-rule="evenodd" clip-rule="evenodd" d="M35.99500219726563,31.298002258300784 v-4.381 c2.3890000000000002,-1.383 3.999,-3.9610000000000003 3.999,-6.92 c0,-4.417 -3.581,-7.999 -7.998,-7.999 c-1.601,0 -3.084,0.48000000000000004 -4.334,1.291 c-1.231,-5.317 -5.974,-9.29 -11.665000000000001,-9.29 c-6.626,0 -11.998,5.372 -11.998,11.998 c0,3.55 1.55,6.728 3.999,8.925 v4.916 c-4.776,-2.7680000000000002 -7.998,-7.922 -7.998,-13.841 c0,-8.835 7.162,-15.997 15.997,-15.997 c6.004,0 11.229,3.311 13.966,8.203 c0.6630000000000001,-0.11300000000000002 1.336,-0.20500000000000002 2.033,-0.20500000000000002 c6.626,0 11.998,5.372 11.998,11.999 C43.99400219726563,25.22000225830078 40.65200219726563,29.65000225830078 35.99500219726563,31.298002258300784 zM13.998002197265627,31.996002258300777 c-1.104,0 -1,-0.8950000000000001 -1,-1.998 v-8 c0,-1.104 -0.10400000000000001,-2 1,-2 s1,0.8960000000000001 1,2 v8 C14.998002197265627,31.10100225830078 15.102002197265627,31.996002258300777 13.998002197265627,31.996002258300777 zM13.998002197265627,35.99600225830078 c1.104,0 1.999,0.8960000000000001 1.999,2 c0,1.105 -0.8950000000000001,2 -1.999,2 s-2,-0.8950000000000001 -2,-2 C11.998002197265627,36.89200225830078 12.893002197265623,35.99600225830078 13.998002197265627,35.99600225830078 zM21.997002197265623,35.99600225830078 c-1.104,0 -1,-0.8950000000000001 -1,-2 v-7.998 c0,-1.105 -0.10400000000000001,-2 1,-2 s1,0.8950000000000001 1,2 v7.998 C22.997002197265623,35.10100225830078 23.101002197265622,35.99600225830078 21.997002197265623,35.99600225830078 zM21.997002197265623,39.99600225830078 c1.104,0 1.999,0.8950000000000001 1.999,2 c0,1.104 -0.8950000000000001,2 -1.999,2 s-2,-0.8960000000000001 -2,-2 C19.997002197265623,40.89000225830078 20.892002197265626,39.99600225830078 21.997002197265623,39.99600225830078 zM29.996002197265625,31.996002258300777 c-1.104,0 -1,-0.8950000000000001 -1,-1.998 v-8 c0,-1.104 -0.10400000000000001,-2 1,-2 s1,0.8960000000000001 1,2 v8 C30.996002197265625,31.10100225830078 31.100002197265624,31.996002258300777 29.996002197265625,31.996002258300777 zM29.996002197265625,35.99600225830078 c1.104,0 2,0.8960000000000001 2,2 c0,1.105 -0.8960000000000001,2 -2,2 s-2,-0.8950000000000001 -2,-2 C27.996002197265625,36.89200225830078 28.892002197265626,35.99600225830078 29.996002197265625,35.99600225830078 z" id="svg_1" class=""/></g></svg>