<svg xmlns="http://www.w3.org/2000/svg" xmlns:xlink="http://www.w3.org/1999/xlink" version="1.1" width="44" height="40" enable-background="new 0 0 100 100" xml:space="preserve"><rect id="backgroundrect" width="100%" height="100%" x="0" y="0" fill="none" stroke="none"/>

<g class="currentLayer" style=""><title>Layer 1</title><path fill-rule="evenodd" clip-rule="evenodd" d="M41.99500164794922,31.996998992919927 H2.000001647949219 c-1.104,0 -2,-0.8960000000000001 -2,-2 c0,-1.105 0.8960000000000001,-2 2,-2 h39.995 c1.104,0 2,0.8950000000000001 2,2 C43.99500164794922,31.09999899291992 43.10000164794921,31.996998992919927 41.99500164794922,31.996998992919927 zM41.99500164794922,23.99699899291992 H2.000001647949219 c-1.104,0 -2,-0.8950000000000001 -2,-2 c0,-1.104 0.8960000000000001,-2 2,-2 h39.995 c1.104,0 2,0.8960000000000001 2,2 C43.99500164794922,23.101998992919924 43.10000164794921,23.99699899291992 41.99500164794922,23.99699899291992 zM31.99600164794922,11.998998992919923 c-1.601,0 -3.083,0.48000000000000004 -4.333,1.291 c-1.232,-5.317 -5.974,-9.291 -11.665000000000001,-9.291 c-6.626,0 -11.998,5.373 -11.998,12 h-4 c0,-8.835 7.163,-15.999 15.998,-15.999 c6.004,0 11.229,3.3120000000000003 13.965,8.204 c0.6640000000000001,-0.11300000000000002 1.3370000000000002,-0.20500000000000002 2.033,-0.20500000000000002 c5.222,0 9.652000000000001,3.342 11.301,8 h-4.381 C37.532001647949215,13.608998992919922 34.95500164794922,11.998998992919923 31.99600164794922,11.998998992919923 zM2.000001647949219,35.99499899291992 h39.995 c1.104,0 2,0.8960000000000001 2,2 c0,1.105 -0.8960000000000001,2 -2,2 H2.000001647949219 c-1.104,0 -2,-0.8950000000000001 -2,-2 C0.0000016479492188636868,36.89099899291992 0.8950016479492184,35.99499899291992 2.000001647949219,35.99499899291992 z" id="svg_1" class=""/></g></svg>