<svg xmlns="http://www.w3.org/2000/svg" xmlns:xlink="http://www.w3.org/1999/xlink" version="1.1" width="45" height="39" enable-background="new 0 0 100 100" xml:space="preserve"><rect id="backgroundrect" width="100%" height="100%" x="0" y="0" fill="none" stroke="none"/>

<g class="currentLayer" style=""><title>Layer 1</title><path fill-rule="evenodd" clip-rule="evenodd" d="M41.815001953125005,20.115002258300784 L41.815001953125005,20.115002258300784 c1.368,1.949 2.179,4.318 2.179,6.883 c0,6.625 -5.371,11.998 -11.998,11.998 c-2.775,0 -12.801,0 -15.998,0 c-8.836,0 -15.998,-7.162 -15.998,-15.998 s7.162,-15.998 15.998,-15.998 c2.002,0 3.914,0.37500000000000006 5.68,1.047 l0,0 c1.6350000000000002,-4.682 6.078,-8.047 11.318,-8.047 c0.7550000000000001,0 1.491,0.07800000000000001 2.207,0.21200000000000002 c-0.131,0.5750000000000001 -0.20700000000000002,1.173 -0.20700000000000002,1.788 c0,4.418 3.581,7.999 7.998,7.999 c0.6160000000000001,0 1.213,-0.07600000000000001 1.7890000000000001,-0.20800000000000002 c0.133,0.7170000000000001 0.21100000000000002,1.453 0.21100000000000002,2.208 C44.993001953125,15.13200225830078 43.782001953125004,17.978002258300783 41.815001953125005,20.115002258300784 zM3.999001953124999,22.99800225830078 c0,6.627 5.371,11.998 11.998,11.998 c3.616,0 12.979,0 15.998,0 c4.418,0 7.999,-3.582 7.999,-7.998 c0,-4.418 -3.581,-8 -7.999,-8 c-1.6,0 -3.083,0.48200000000000004 -4.334,1.291 c-1.231,-5.316 -5.973,-9.29 -11.664,-9.29 C9.370001953124998,10.999002258300784 3.999001953124999,16.371002258300784 3.999001953124999,22.99800225830078 zM23.548001953125002,8.902002258300783 c0.0010000000000000002,0 0.0020000000000000005,0 0.0020000000000000005,0 S23.549001953125,8.902002258300783 23.548001953125002,8.902002258300783 zM31.207001953125,4.207002258300783 c-2.9,0.6640000000000001 -5.175,2.91 -5.925,5.775 l0,0 c1.9180000000000001,1.372 3.523,3.152 4.68,5.22 c0.6640000000000001,-0.11300000000000002 1.3370000000000002,-0.20500000000000002 2.033,-0.20500000000000002 c2.6180000000000003,0 5.033,0.8500000000000001 7.005,2.271 l0,0 c0.8580000000000001,-0.979 1.485,-2.168 1.786,-3.482 C35.933001953125,12.88200225830078 32.111001953125,9.063002258300784 31.207001953125,4.207002258300783 z" id="svg_1" class=""/></g></svg>