<svg xmlns="http://www.w3.org/2000/svg" xmlns:xlink="http://www.w3.org/1999/xlink" version="1.1" width="47" height="46" enable-background="new 0 0 100 100" xml:space="preserve"><rect id="backgroundrect" width="100%" height="100%" x="0" y="0" fill="none" stroke="none"/>

<g class="currentLayer" style=""><title>Layer 1</title><path fill-rule="evenodd" clip-rule="evenodd" d="M44.99400164794922,37.99600225830078 c-1.104,0 -1.999,-0.8950000000000001 -1.999,-2 c0,-1.104 0.8950000000000001,-2 1.999,-2 s2,0.8960000000000001 2,2 C46.99400164794922,37.10100225830078 46.09900164794922,37.99600225830078 44.99400164794922,37.99600225830078 zM35.995001647949216,31.298002258300784 v-4.381 c2.3890000000000002,-1.383 4,-3.9610000000000003 4,-6.92 c0,-4.417 -3.581,-7.999 -7.999,-7.999 c-1.601,0 -3.083,0.48000000000000004 -4.334,1.291 c-1.231,-5.317 -5.973,-9.29 -11.664,-9.29 c-6.627,0 -11.999,5.372 -11.999,11.998 c0,3.55 1.5510000000000002,6.728 4,8.925 v4.916 c-4.777,-2.7680000000000002 -7.999,-7.922 -7.999,-13.841 c0,-8.835 7.162,-15.997 15.998,-15.997 c6.004,0 11.229,3.311 13.965,8.203 c0.6640000000000001,-0.11300000000000002 1.3370000000000002,-0.20500000000000002 2.033,-0.20500000000000002 c6.626,0 11.998,5.372 11.998,11.999 C43.99400164794922,25.22000225830078 40.65200164794922,29.65000225830078 35.995001647949216,31.298002258300784 zM3.000001647949219,38.99600225830078 c1.104,0 1.999,0.8950000000000001 1.999,2 c0,1.104 -0.8950000000000001,2 -1.999,2 s-2,-0.8960000000000001 -2,-2 C1.0000016479492189,39.89000225830078 1.8950016479492184,38.99600225830078 3.000001647949219,38.99600225830078 zM12.998001647949216,21.99800225830078 c0,-1.104 -0.10400000000000001,-2 1,-2 s1,0.8960000000000001 1,2 v23.998 h-2 l0,0 l0,0 c0,-2.209 -1.79,-4 -3.999,-4 v-2 c1.5430000000000001,0 2.9370000000000003,0.6000000000000001 3.999,1.557 V21.99800225830078 zM21.99700164794922,35.99600225830078 c-1.104,0 -1,-0.8950000000000001 -1,-2 v-7.998 c0,-1.105 -0.10400000000000001,-2 1,-2 s1,0.8950000000000001 1,2 v7.998 C22.99700164794922,35.10100225830078 23.101001647949218,35.99600225830078 21.99700164794922,35.99600225830078 zM21.99700164794922,39.99600225830078 c1.104,0 2,0.8950000000000001 2,2 c0,1.104 -0.8960000000000001,2 -2,2 s-2,-0.8960000000000001 -2,-2 C19.99700164794922,40.89000225830078 20.89300164794922,39.99600225830078 21.99700164794922,39.99600225830078 zM29.99600164794922,19.99800225830078 c1.104,0 1,0.8960000000000001 1,2 v18.016 c1.823,-2.434 4.723,-4.018 7.999,-4.018 v2 c-4.418,0 -7.999,3.582 -7.999,8 h-2 c0,-0.273 0.020000000000000004,-0.541 0.04100000000000001,-0.807 c-0.05400000000000001,-0.3340000000000001 -0.04100000000000001,-0.7440000000000001 -0.04100000000000001,-1.193 V21.99800225830078 C28.99600164794922,20.89400225830078 28.892001647949222,19.99800225830078 29.99600164794922,19.99800225830078 z" id="svg_1" class=""/></g></svg>