<svg xmlns="http://www.w3.org/2000/svg" xmlns:xlink="http://www.w3.org/1999/xlink" version="1.1" width="44" height="44" enable-background="new 0 0 100 100" xml:space="preserve"><rect id="backgroundrect" width="100%" height="100%" x="0" y="0" fill="none" stroke="none"/>

<g class="currentLayer" style=""><title>Layer 1</title><path fill-rule="evenodd" clip-rule="evenodd" d="M35.99600140380859,31.298002258300784 v-4.381 c2.3890000000000002,-1.383 4,-3.9610000000000003 4,-6.92 c0,-4.417 -3.582,-7.999 -8,-7.999 c-1.6,0 -3.082,0.48000000000000004 -4.333,1.291 c-1.231,-5.317 -5.974,-9.29 -11.665000000000001,-9.29 c-6.626,0 -11.998,5.372 -11.998,11.998 c0,3.55 1.5510000000000002,6.728 4,8.925 v4.916 c-4.777,-2.7680000000000002 -8,-7.922 -8,-13.841 c0,-8.835 7.163,-15.997 15.998,-15.997 c6.004,0 11.229,3.311 13.965,8.203 c0.6640000000000001,-0.11300000000000002 1.338,-0.20500000000000002 2.033,-0.20500000000000002 c6.627,0 11.999,5.372 11.999,11.999 C43.99500140380859,25.22000225830078 40.65400140380859,29.65000225830078 35.99600140380859,31.298002258300784 zM13.999001403808592,19.99800225830078 c1.104,0 1.999,0.8960000000000001 1.999,2 v15.998 c0,1.105 -0.8950000000000001,2 -1.999,2 s-2,-0.8950000000000001 -2,-2 V21.99800225830078 C11.999001403808592,20.89400225830078 12.895001403808592,19.99800225830078 13.999001403808592,19.99800225830078 zM21.998001403808594,23.99800225830078 c1.104,0 2,0.8950000000000001 2,2 v15.998 c0,1.104 -0.8960000000000001,2 -2,2 s-2,-0.8960000000000001 -2,-2 V25.99800225830078 C19.998001403808594,24.892002258300778 20.894001403808595,23.99800225830078 21.998001403808594,23.99800225830078 zM29.997001403808596,19.99800225830078 c1.104,0 1.999,0.8960000000000001 1.999,2 v15.998 c0,1.105 -0.8950000000000001,2 -1.999,2 s-2,-0.8950000000000001 -2,-2 V21.99800225830078 C27.997001403808596,20.89400225830078 28.893001403808597,19.99800225830078 29.997001403808596,19.99800225830078 z" id="svg_1" class=""/></g></svg>