<svg xmlns="http://www.w3.org/2000/svg" xmlns:xlink="http://www.w3.org/1999/xlink" version="1.1" width="54" height="48" enable-background="new 0 0 100 100" xml:space="preserve" style=""><rect id="backgroundrect" width="100%" height="100%" x="0" y="0" fill="none" stroke="none"/>

<g class="currentLayer" style=""><title>Layer 1</title><path fill-rule="evenodd" clip-rule="evenodd" d="M51.993001953125,25.99600144958496 h-4 c-1.104,0 -2,-0.8950000000000001 -2,-2 c0,-1.104 0.8960000000000001,-1.998 2,-1.998 h4 c1.104,0 2,0.8950000000000001 2,1.998 C53.993001953125,25.101001449584963 53.097001953125,25.99600144958496 51.993001953125,25.99600144958496 zM44.136001953125,12.684001449584962 c-0.781,0.781 -2.047,0.781 -2.8280000000000003,0 c-0.781,-0.78 -0.781,-2.047 0,-2.827 l2.8280000000000003,-2.8280000000000003 c0.781,-0.781 2.047,-0.781 2.8280000000000003,0 c0.781,0.78 0.781,2.047 0,2.8280000000000003 L44.136001953125,12.684001449584962 zM41.189001953125,28.29100144958496 L41.189001953125,28.29100144958496 c1.749,2.086 2.806,4.77 2.806,7.705 c0,6.625 -5.372,11.998 -11.999,11.998 c-2.775,0 -12.801,0 -15.998,0 c-8.835,0 -15.998,-7.162 -15.998,-15.998 s7.163,-15.998 15.998,-15.998 c1.572,0 3.09,0.232 4.523,0.6540000000000001 c2.195,-2.827 5.618,-4.654 9.475,-4.654 c6.627,0 11.999,5.373 11.999,11.998 C41.99400195312499,25.51100144958496 41.701001953125,26.957001449584958 41.189001953125,28.29100144958496 zM3.999001953124999,31.99600144958496 c0,6.627 5.371,11.998 11.998,11.998 c3.616,0 12.979,0 15.998,0 c4.418,0 7.999,-3.582 7.999,-7.998 c0,-4.418 -3.581,-8 -7.999,-8 c-1.6,0 -3.083,0.48200000000000004 -4.333,1.291 c-1.231,-5.316 -5.974,-9.289 -11.665000000000001,-9.289 C9.370001953124998,19.99800144958496 3.999001953124999,25.369001449584964 3.999001953124999,31.99600144958496 zM29.995001953124998,15.998001449584962 c-2.212,0 -4.215,0.8980000000000001 -5.662,2.349 c2.34,1.436 4.285,3.453 5.6290000000000004,5.854 c0.6640000000000001,-0.11300000000000002 1.3370000000000002,-0.20500000000000002 2.033,-0.20500000000000002 c2.125,0 4.119,0.559 5.85,1.5270000000000001 l0,0 c0.09600000000000003,-0.49400000000000005 0.15000000000000002,-1.004 0.15000000000000002,-1.5270000000000001 C37.995001953125,19.580001449584962 34.413001953125,15.998001449584962 29.995001953124998,15.998001449584962 zM29.995001953124998,7.998001449584962 c-1.104,0 -1.999,-0.8950000000000001 -1.999,-1.999 v-3.999 c0,-1.105 0.8960000000000001,-2 1.999,-2 c1.105,0 2,0.8950000000000001 2,2 v3.999 C31.995001953124998,7.10400144958496 31.101001953125,7.998001449584962 29.995001953124998,7.998001449584962 zM15.855001953124997,12.684001449584962 l-2.827,-2.827 c-0.781,-0.781 -0.781,-2.048 0,-2.8280000000000003 c0.78,-0.781 2.047,-0.781 2.827,0 l2.8280000000000003,2.8280000000000003 c0.781,0.78 0.781,2.047 0,2.827 C17.903001953125,13.46500144958496 16.636001953125003,13.46500144958496 15.855001953124997,12.684001449584962 z" id="svg_1" class=""/></g></svg>