<svg xmlns="http://www.w3.org/2000/svg" xmlns:xlink="http://www.w3.org/1999/xlink" version="1.1" width="44" height="32" enable-background="new 0 0 100 100" xml:space="preserve"><rect id="backgroundrect" width="100%" height="100%" x="0" y="0" fill="none" stroke="none"/>

<g class="currentLayer" style=""><title>Layer 1</title><path fill-rule="evenodd" clip-rule="evenodd" d="M15.998001403808594,31.996002258300777 c-8.835,0 -15.998,-7.162 -15.998,-15.998 c0,-8.836 7.163,-15.998 15.998,-15.998 c6.004,0 11.229,3.3120000000000003 13.965,8.203 c0.6640000000000001,-0.11300000000000002 1.338,-0.20500000000000002 2.033,-0.20500000000000002 c6.627,0 11.999,5.373 11.999,12 c0,6.625 -5.372,11.998 -11.999,11.998 C29.221001403808593,31.996002258300777 19.196001403808594,31.996002258300777 15.998001403808594,31.996002258300777 zM31.99600140380859,27.996002258300784 c4.418,0 8,-3.582 8,-7.998 c0,-4.418 -3.582,-8 -8,-8 c-1.6,0 -3.082,0.48100000000000004 -4.333,1.291 c-1.231,-5.316 -5.974,-9.29 -11.665000000000001,-9.29 c-6.626,0 -11.998,5.372 -11.998,11.999 c0,6.626 5.372,11.998 11.998,11.998 C19.61500140380859,27.996002258300784 28.977001403808593,27.996002258300784 31.99600140380859,27.996002258300784 z" id="svg_1" class=""/></g></svg>