<svg xmlns="http://www.w3.org/2000/svg" xmlns:xlink="http://www.w3.org/1999/xlink" version="1.1" width="44" height="40" enable-background="new 0 0 100 100" xml:space="preserve"><rect id="backgroundrect" width="100%" height="100%" x="0" y="0" fill="none" stroke="none" class="" style=""/>

<g class="currentLayer" style=""><title>Layer 1</title><path fill-rule="evenodd" clip-rule="evenodd" d="M35.99600164794922,31.30000225830078 v-4.381 c2.3890000000000002,-1.385 3.999,-3.963 3.999,-6.922 c0,-4.416 -3.581,-7.998 -7.999,-7.998 c-1.6,0 -3.083,0.48000000000000004 -4.333,1.291 c-1.231,-5.317 -5.974,-9.291 -11.665000000000001,-9.291 c-6.627,0 -11.998,5.373 -11.998,12 c0,3.549 1.55,6.729 4,8.924 v4.916 c-4.777,-2.7680000000000002 -8,-7.922 -8,-13.84 c0,-8.836 7.163,-15.999 15.998,-15.999 c6.004,0 11.229,3.3120000000000003 13.965,8.204 c0.6640000000000001,-0.11300000000000002 1.3370000000000002,-0.20500000000000002 2.033,-0.20500000000000002 c6.627,0 11.999,5.373 11.999,11.998 C43.99500164794922,25.22000225830078 40.65200164794922,29.65000225830078 35.99600164794922,31.30000225830078 zM13.998001647949216,23.99800225830078 c1.105,0 2,0.8960000000000001 2,2 c0,1.105 -0.8950000000000001,2 -2,2 c-1.104,0 -1.999,-0.8950000000000001 -1.999,-2 C11.999001647949221,24.89400225830078 12.894001647949217,23.99800225830078 13.998001647949216,23.99800225830078 zM13.998001647949216,31.998002258300787 c1.105,0 2,0.8950000000000001 2,2 c0,1.104 -0.8950000000000001,1.998 -2,1.998 c-1.104,0 -1.999,-0.8950000000000001 -1.999,-1.998 C11.999001647949221,32.89200225830078 12.894001647949217,31.998002258300787 13.998001647949216,31.998002258300787 zM21.998001647949216,27.99800225830078 c1.104,0 2,0.8950000000000001 2,2 c0,1.104 -0.8960000000000001,2 -2,2 c-1.105,0 -2,-0.8960000000000001 -2,-2 C19.998001647949216,28.892002258300778 20.89300164794922,27.99800225830078 21.998001647949216,27.99800225830078 zM21.998001647949216,35.99600225830078 c1.104,0 2,0.8960000000000001 2,2 c0,1.105 -0.8960000000000001,2 -2,2 c-1.105,0 -2,-0.8950000000000001 -2,-2 C19.998001647949216,36.89200225830078 20.89300164794922,35.99600225830078 21.998001647949216,35.99600225830078 zM29.99600164794922,23.99800225830078 c1.105,0 2,0.8960000000000001 2,2 c0,1.105 -0.8950000000000001,2 -2,2 c-1.104,0 -1.999,-0.8950000000000001 -1.999,-2 C27.99700164794922,24.89400225830078 28.89300164794922,23.99800225830078 29.99600164794922,23.99800225830078 zM29.99600164794922,31.998002258300787 c1.105,0 2,0.8950000000000001 2,2 c0,1.104 -0.8950000000000001,1.998 -2,1.998 c-1.104,0 -1.999,-0.8950000000000001 -1.999,-1.998 C27.99700164794922,32.89200225830078 28.89300164794922,31.998002258300787 29.99600164794922,31.998002258300787 z" id="svg_1" class=""/></g></svg>