<svg xmlns="http://www.w3.org/2000/svg" xmlns:xlink="http://www.w3.org/1999/xlink" version="1.1" width="24" height="24" enable-background="new 0 0 100 100" xml:space="preserve"><rect id="backgroundrect" width="100%" height="100%" x="0" y="0" fill="none" stroke="none"/>

<g class="currentLayer" style=""><title>Layer 1</title><path fill-rule="evenodd" clip-rule="evenodd" d="M11.999000549316406,23.997000549316404 c-6.627,0 -11.999,-5.372 -11.999,-11.998 c0,-6.627 5.372,-11.999 11.999,-11.999 c0.7550000000000001,0 1.491,0.07800000000000001 2.207,0.21200000000000002 c-0.132,0.5760000000000001 -0.20800000000000002,1.173 -0.20800000000000002,1.788 c0,4.418 3.582,7.999 8,7.999 c0.6150000000000001,0 1.212,-0.07600000000000001 1.788,-0.20800000000000002 c0.133,0.7170000000000001 0.21100000000000002,1.452 0.21100000000000002,2.208 C23.997000549316404,18.625000549316404 18.625000549316404,23.997000549316404 11.999000549316406,23.997000549316404 zM10.21100054931641,4.207000549316405 c-3.556,0.8130000000000001 -6.211,3.989 -6.211,7.792 c0,4.417 3.581,7.999 7.999,7.999 c3.802,0 6.978,-2.6550000000000002 7.791,-6.211 C14.936000549316404,12.883000549316407 11.114000549316408,9.061000549316404 10.21100054931641,4.207000549316405 z" id="svg_1" class=""/></g></svg>