<svg xmlns="http://www.w3.org/2000/svg" xmlns:xlink="http://www.w3.org/1999/xlink" version="1.1" width="48" height="48" enable-background="new 0 0 100 100" xml:space="preserve"><rect id="backgroundrect" width="100%" height="100%" x="0" y="0" fill="none" stroke="none" class="" style=""/>

<g class="currentLayer" style=""><title>Layer 1</title><path fill-rule="evenodd" clip-rule="evenodd" d="M45.99400164794922,25.99600164794922 h-3.998 c-1.105,0 -2,-0.8950000000000001 -2,-1.999 s0.8950000000000001,-2 2,-2 h3.998 c1.105,0 2,0.8960000000000001 2,2 S47.10000164794921,25.99600164794922 45.99400164794922,25.99600164794922 zM38.139001647949215,12.685001647949221 c-0.781,0.781 -2.049,0.781 -2.8280000000000003,0 c-0.781,-0.781 -0.781,-2.047 0,-2.8280000000000003 l2.8280000000000003,-2.8280000000000003 c0.779,-0.781 2.047,-0.781 2.8280000000000003,0 c0.779,0.781 0.779,2.047 0,2.8280000000000003 L38.139001647949215,12.685001647949221 zM23.998001647949216,35.995001647949216 c-6.627,0 -12,-5.372 -12,-11.998 c0,-6.627 5.372,-11.999 12,-11.999 c6.627,0 11.998,5.372 11.998,11.999 C35.99600164794922,30.623001647949216 30.62500164794922,35.995001647949216 23.998001647949216,35.995001647949216 zM23.998001647949216,15.998001647949216 c-4.418,0 -8,3.581 -8,7.999 c0,4.417 3.583,7.999 8,7.999 s7.998,-3.582 7.998,-7.999 C31.99600164794922,19.57900164794922 28.416001647949216,15.998001647949216 23.998001647949216,15.998001647949216 zM23.998001647949216,7.999001647949221 c-1.105,0 -2,-0.8960000000000001 -2,-2 v-3.999 c0,-1.104 0.8950000000000001,-2 2,-2 c1.104,0 2,0.8960000000000001 2,2 v3.999 C25.998001647949216,7.10300164794922 25.101001647949218,7.999001647949221 23.998001647949216,7.999001647949221 zM9.857001647949218,12.685001647949221 l-2.8280000000000003,-2.8280000000000003 c-0.781,-0.781 -0.781,-2.047 0,-2.8280000000000003 s2.047,-0.781 2.8280000000000003,0 l2.8280000000000003,2.8280000000000003 c0.781,0.781 0.781,2.047 0,2.8280000000000003 S10.638001647949217,13.46600164794922 9.857001647949218,12.685001647949221 zM7.999001647949221,23.99700164794922 c0,1.104 -0.8960000000000001,1.999 -2,1.999 h-4 c-1.104,0 -1.999,-0.8950000000000001 -1.999,-1.999 s0.8960000000000001,-2 1.999,-2 h4 C7.104001647949218,21.99700164794922 7.999001647949221,22.89300164794922 7.999001647949221,23.99700164794922 zM9.857001647949218,35.309001647949216 c0.781,-0.78 2.047,-0.78 2.8280000000000003,0 c0.781,0.781 0.781,2.048 0,2.8280000000000003 l-2.8280000000000003,2.8280000000000003 c-0.781,0.781 -2.047,0.781 -2.8280000000000003,0 c-0.781,-0.78 -0.781,-2.047 0,-2.8280000000000003 L9.857001647949218,35.309001647949216 zM23.998001647949216,39.99500164794922 c1.104,0 2,0.8950000000000001 2,1.999 v4 c0,1.104 -0.8960000000000001,2 -2,2 c-1.105,0 -2,-0.8960000000000001 -2,-2 v-4 C21.998001647949216,40.89000164794922 22.89300164794922,39.99500164794922 23.998001647949216,39.99500164794922 zM38.139001647949215,35.309001647949216 l2.8280000000000003,2.8280000000000003 c0.779,0.781 0.779,2.048 0,2.8280000000000003 c-0.781,0.781 -2.049,0.781 -2.8280000000000003,0 l-2.8280000000000003,-2.8280000000000003 c-0.781,-0.78 -0.781,-2.047 0,-2.8280000000000003 C36.09000164794922,34.52800164794922 37.35700164794922,34.52800164794922 38.139001647949215,35.309001647949216 z" id="svg_1" class=""/></g></svg>