<svg xmlns="http://www.w3.org/2000/svg" xmlns:xlink="http://www.w3.org/1999/xlink" version="1.1" width="42" height="36" enable-background="new 0 0 100 100" xml:space="preserve"><rect id="backgroundrect" width="100%" height="100%" x="0" y="0" fill="none" stroke="none"/>

<g class="currentLayer" style=""><title>Layer 1</title><path fill-rule="evenodd" clip-rule="evenodd" d="M39.99499971008301,3.999000915527347 H1.9999997100830065 c-1.104,0 -2,-0.8960000000000001 -2,-1.999 c0,-1.104 0.8960000000000001,-2 2,-2 h37.995 c1.104,0 2,0.8960000000000001 2,2 C41.99499971008301,3.103000915527346 41.09999971008301,3.999000915527347 39.99499971008301,3.999000915527347 zM3.99999971008301,7.999000915527347 h29.996 c1.104,0 2,0.8960000000000001 2,2 c0,1.104 -0.8960000000000001,1.999 -2,1.999 H3.99999971008301 c-1.104,0 -2,-0.8960000000000001 -2,-1.999 C1.9999997100830065,8.894000915527343 2.8959997100830073,7.999000915527347 3.99999971008301,7.999000915527347 zM15.997999710083008,15.998000915527342 h21.998 c1.104,0 1.999,0.8960000000000001 1.999,1.999 c0,1.104 -0.8950000000000001,2 -1.999,2 H15.997999710083008 c-1.104,0 -1.999,-0.8960000000000001 -1.999,-2 C13.998999710083005,16.894000915527343 14.893999710083008,15.998000915527342 15.997999710083008,15.998000915527342 zM17.997999710083008,31.996000915527347 h5.999 c1.104,0 2,0.8960000000000001 2,1.999 c0,1.104 -0.8960000000000001,2 -2,2 h-5.999 c-1.104,0 -2,-0.8960000000000001 -2,-2 C15.997999710083008,32.89200091552735 16.89399971008301,31.996000915527347 17.997999710083008,31.996000915527347 zM18.997999710083008,25.996000915527347 c0,-1.104 0.8960000000000001,-1.999 2,-1.999 h13.998 c1.104,0 2,0.8960000000000001 2,1.999 c0,1.104 -0.8960000000000001,2 -2,2 H20.997999710083008 C19.89399971008301,27.996000915527347 18.997999710083008,27.101000915527344 18.997999710083008,25.996000915527347 z" id="svg_1" class=""/></g></svg>