<svg xmlns="http://www.w3.org/2000/svg" xmlns:xlink="http://www.w3.org/1999/xlink" version="1.1" width="44" height="28" enable-background="new 0 0 100 100" xml:space="preserve" style=""><rect id="backgroundrect" width="100%" height="100%" x="0" y="0" fill="none" stroke="none"/>

<g class="currentLayer" style=""><title>Layer 1</title><path fill-rule="evenodd" clip-rule="evenodd" d="M37.996001647949214,15.998001098632812 L37.996001647949214,15.998001098632812 h-3 c-1.105,0 -2,-0.8950000000000001 -2,-1.999 s0.8950000000000001,-2 2,-2 h3 c1.104,0 2,-0.8960000000000001 2,-1.999 c0,-1.105 -0.8960000000000001,-2 -2,-2 c-1.105,0 -2,-0.8960000000000001 -2,-2 s0.8950000000000001,-2 2,-2 c0.137,0 0.271,0.014000000000000002 0.402,0.04100000000000001 c3.121,0.21100000000000002 5.596,2.783 5.596,5.959 C43.99400164794922,13.312001098632813 41.309001647949216,15.998001098632812 37.996001647949214,15.998001098632812 zM27.99600164794922,11.99900109863281 h-2 h-6.998 H5.999001647949221 c-1.104,0 -1.999,0.8960000000000001 -1.999,2 S4.895001647949222,15.998001098632812 5.999001647949221,15.998001098632812 h2 h3.999 h3 h4 h3 h3.998 h2 c3.314,0 6,2.6870000000000003 6,6 c0,3.176 -2.475,5.748 -5.596,5.959 C28.269001647949217,27.98400109863281 28.135001647949217,27.998001098632812 27.99600164794922,27.998001098632812 c-1.104,0 -2,-0.8960000000000001 -2,-2 c0,-1.105 0.8960000000000001,-2 2,-2 c1.105,0 2,-0.8960000000000001 2,-2 s-0.8950000000000001,-2 -2,-2 h-2 h-3.998 h-3 h-4 h-3 h-3.999 h-2 c-3.313,0 -5.999,-2.686 -5.999,-5.999 c0,-3.175 2.475,-5.747 5.596,-5.959 c0.131,-0.026000000000000006 0.266,-0.04000000000000001 0.403,-0.04000000000000001 l0,0 h12.999 h6.998 h2 c1.105,0 2,-0.8960000000000001 2,-2 s-0.8950000000000001,-2 -2,-2 c-1.104,0 -2,-0.8950000000000001 -2,-2 c0,-1.104 0.8960000000000001,-2 2,-2 c0.139,0 0.273,0.015000000000000003 0.404,0.04100000000000001 c3.121,0.21100000000000002 5.596,2.783 5.596,5.959 C33.99600164794922,9.312001098632813 31.31000164794922,11.99900109863281 27.99600164794922,11.99900109863281 z" id="svg_1" class=""/></g></svg>